<svg xmlns="http://www.w3.org/2000/svg" viewBox="0 0 640 360" role="img" aria-label="Tetris Blockfall">
  <defs>
    <linearGradient id="bg" x1="0" y1="0" x2="1" y2="1">
      <stop offset="0%" stop-color="#04363b"/>
      <stop offset="45%" stop-color="#0f172a"/>
      <stop offset="100%" stop-color="#1e1b4b"/>
    </linearGradient>
  </defs>
  <rect width="640" height="360" fill="url(#bg)"/>
  <rect x="38" y="24" width="564" height="312" rx="24" fill="rgba(2,6,23,0.72)" stroke="rgba(94,234,212,0.32)"/>
  <rect x="232" y="62" width="176" height="232" rx="12" fill="rgba(15,23,42,0.92)"/>
  <g transform="translate(246 76)">
    <rect x="0" y="136" width="16" height="16" fill="#f87171"/>
    <rect x="16" y="136" width="16" height="16" fill="#f87171"/>
    <rect x="32" y="136" width="16" height="16" fill="#f87171"/>
    <rect x="48" y="136" width="16" height="16" fill="#f87171"/>
    <rect x="64" y="152" width="16" height="16" fill="#22d3ee"/>
    <rect x="80" y="152" width="16" height="16" fill="#22d3ee"/>
    <rect x="96" y="152" width="16" height="16" fill="#22d3ee"/>
    <rect x="80" y="136" width="16" height="16" fill="#22d3ee"/>
    <rect x="32" y="184" width="16" height="16" fill="#facc15"/>
    <rect x="48" y="184" width="16" height="16" fill="#facc15"/>
    <rect x="64" y="184" width="16" height="16" fill="#facc15"/>
    <rect x="64" y="200" width="16" height="16" fill="#facc15"/>
  </g>
  <rect x="426" y="88" width="120" height="94" rx="10" fill="rgba(15,23,42,0.8)" stroke="rgba(148,163,184,0.3)"/>
  <text x="440" y="112" fill="#e2e8f0" font-size="14" font-family="'JetBrains Mono','Consolas',monospace">NEXT</text>
  <rect x="452" y="128" width="14" height="14" fill="#c084fc"/>
  <rect x="466" y="128" width="14" height="14" fill="#c084fc"/>
  <rect x="480" y="128" width="14" height="14" fill="#c084fc"/>
  <rect x="466" y="142" width="14" height="14" fill="#c084fc"/>
  <text x="76" y="302" fill="#f8fafc" font-size="34" font-family="'Bricolage Grotesque','Segoe UI',sans-serif" font-weight="700">Tetris Blockfall</text>
  <text x="76" y="326" fill="#99f6e4" font-size="16" font-family="'JetBrains Mono','Consolas',monospace">Ghost piece, panel HUD, and glossy blocks</text>
</svg>
