<svg xmlns="http://www.w3.org/2000/svg" viewBox="0 0 200 140" fill="none">
  <defs>
    <linearGradient id="tm-sky" x1="0" y1="0" x2="0" y2="1">
      <stop offset="0%" stop-color="#9fdcff"/>
      <stop offset="100%" stop-color="#e9f8ef"/>
    </linearGradient>
    <radialGradient id="tm-sun" cx="50%" cy="50%" r="50%">
      <stop offset="0%" stop-color="rgba(255,247,214,0.95)"/>
      <stop offset="100%" stop-color="rgba(255,247,214,0)"/>
    </radialGradient>
    <linearGradient id="tm-pit" x1="0" y1="0" x2="0" y2="1">
      <stop offset="0%" stop-color="#160d06"/>
      <stop offset="70%" stop-color="#2e1d10"/>
      <stop offset="100%" stop-color="#3a2617"/>
    </linearGradient>
    <radialGradient id="tm-brown" cx="34%" cy="30%" r="76%">
      <stop offset="0%" stop-color="#a97645"/>
      <stop offset="55%" stop-color="#8a5a34"/>
      <stop offset="100%" stop-color="#4a2d16"/>
    </radialGradient>
    <radialGradient id="tm-gold" cx="34%" cy="28%" r="76%">
      <stop offset="0%" stop-color="#fff0b8"/>
      <stop offset="55%" stop-color="#ffd75e"/>
      <stop offset="100%" stop-color="#c98908"/>
    </radialGradient>
    <radialGradient id="tm-bombg" cx="34%" cy="30%" r="76%">
      <stop offset="0%" stop-color="#6c737d"/>
      <stop offset="55%" stop-color="#4a5058"/>
      <stop offset="100%" stop-color="#15181d"/>
    </radialGradient>
    <radialGradient id="tm-head" cx="32%" cy="28%" r="78%">
      <stop offset="0%" stop-color="#f6e3c8"/>
      <stop offset="55%" stop-color="#e2c7a4"/>
      <stop offset="100%" stop-color="#b2926e"/>
    </radialGradient>
    <linearGradient id="tm-shirt" x1="0" y1="0" x2="1" y2="1">
      <stop offset="0%" stop-color="#ffb27a"/>
      <stop offset="55%" stop-color="#ff8a3d"/>
      <stop offset="100%" stop-color="#b4541c"/>
    </linearGradient>
    <linearGradient id="tm-mallet" x1="0" y1="0" x2="0" y2="1">
      <stop offset="0%" stop-color="#ff8e6f"/>
      <stop offset="55%" stop-color="#d94f37"/>
      <stop offset="100%" stop-color="#8f2f1f"/>
    </linearGradient>
    <radialGradient id="tm-vig" cx="50%" cy="55%" r="72%">
      <stop offset="55%" stop-color="rgba(0,0,0,0)"/>
      <stop offset="100%" stop-color="rgba(12,30,20,0.32)"/>
    </radialGradient>
  </defs>

  <rect width="200" height="140" fill="url(#tm-sky)"/>
  <ellipse cx="156" cy="10" rx="46" ry="30" fill="url(#tm-sun)"/>
  <circle cx="156" cy="11" r="7" fill="rgba(255,246,214,0.9)"/>
  <g fill="rgba(255,255,255,0.72)">
    <ellipse cx="34" cy="13" rx="16" ry="6"/>
    <ellipse cx="26" cy="15" rx="8" ry="5"/>
    <ellipse cx="44" cy="15" rx="9" ry="5.5"/>
    <ellipse cx="92" cy="9" rx="11" ry="4.4"/>
    <ellipse cx="86" cy="11" rx="6" ry="3.6"/>
  </g>

  <!-- hedge + white picket fence across the back -->
  <rect x="0" y="26" width="200" height="18" fill="#4f9b5c"/>
  <rect x="0" y="26" width="200" height="4" fill="#6bb877"/>
  <rect x="0" y="42" width="200" height="2" fill="#2f6b46"/>
  <g fill="#f4faf6" stroke="#c4dccd" stroke-width="0.6">
    <rect x="6" y="28" width="5" height="16"/><rect x="26" y="28" width="5" height="16"/>
    <rect x="46" y="28" width="5" height="16"/><rect x="66" y="28" width="5" height="16"/>
    <rect x="86" y="28" width="5" height="16"/><rect x="106" y="28" width="5" height="16"/>
    <rect x="126" y="28" width="5" height="16"/><rect x="146" y="28" width="5" height="16"/>
    <rect x="166" y="28" width="5" height="16"/><rect x="186" y="28" width="5" height="16"/>
  </g>
  <rect x="0" y="31" width="200" height="2.4" fill="#f4faf6"/>
  <rect x="0" y="39" width="200" height="2.4" fill="#dfeee4"/>
  <!-- corner topiaries -->
  <circle cx="12" cy="30" r="12" fill="#4f9b5c"/><circle cx="9" cy="26" r="6" fill="#6bb877"/>
  <circle cx="188" cy="30" r="12" fill="#4f9b5c"/><circle cx="185" cy="26" r="6" fill="#6bb877"/>

  <!-- mowed checkered lawn in perspective -->
  <g>
    <path d="M50 44 h100 l42 96 h-184 z" fill="#4fb187"/>
    <path d="M50 44 h25 l-10 24 h-25 z" fill="#6fd0a6"/>
    <path d="M100 44 h25 l10 24 h-25 z" fill="#6fd0a6"/>
    <path d="M50 68 h-25 l-12 28 h29 z" fill="#6fd0a6"/>
    <path d="M75 68 h25 l4 28 h-29 z" fill="#6fd0a6"/>
    <path d="M135 68 h25 l14 28 h-29 z" fill="#6fd0a6"/>
    <path d="M42 96 h-29 l-14 32 h33 z" fill="#6fd0a6"/>
    <path d="M75 96 h29 l2 32 h-33 z" fill="#6fd0a6"/>
    <path d="M139 96 h29 l14 32 h-33 z" fill="#6fd0a6"/>
  </g>
  <g stroke="rgba(28,92,66,0.35)" stroke-width="0.8" stroke-linecap="round">
    <path d="M30 118 l-3 -5 M30 118 l3 -4.5 M172 112 l-3 -5 M172 112 l3 -4.5 M96 84 l-2 -3.5 M96 84 l2 -3"/>
  </g>

  <!-- holes with raised dirt collars -->
  <g>
    <g transform="translate(70,62)">
      <ellipse cx="0" cy="2" rx="15" ry="7" fill="#5d3f20"/>
      <ellipse cx="0" cy="0.6" rx="14.4" ry="6.6" fill="#8a6236"/>
      <ellipse cx="0" cy="0" rx="12.8" ry="5.8" fill="#6a4a2f"/>
      <ellipse cx="0" cy="0" rx="11" ry="5" fill="url(#tm-pit)"/>
    </g>
    <g transform="translate(130,62)">
      <ellipse cx="0" cy="2" rx="15" ry="7" fill="#5d3f20"/>
      <ellipse cx="0" cy="0.6" rx="14.4" ry="6.6" fill="#8a6236"/>
      <ellipse cx="0" cy="0" rx="12.8" ry="5.8" fill="#6a4a2f"/>
      <ellipse cx="0" cy="0" rx="11" ry="5" fill="url(#tm-pit)"/>
    </g>
    <g transform="translate(40,98)">
      <ellipse cx="0" cy="2.6" rx="19" ry="9" fill="#5d3f20"/>
      <ellipse cx="0" cy="0.8" rx="18.2" ry="8.4" fill="#8a6236"/>
      <ellipse cx="0" cy="0" rx="16.2" ry="7.4" fill="#6a4a2f"/>
      <ellipse cx="0" cy="0" rx="14" ry="6.4" fill="url(#tm-pit)"/>
    </g>
    <g transform="translate(160,98)">
      <ellipse cx="0" cy="2.6" rx="19" ry="9" fill="#5d3f20"/>
      <ellipse cx="0" cy="0.8" rx="18.2" ry="8.4" fill="#8a6236"/>
      <ellipse cx="0" cy="0" rx="16.2" ry="7.4" fill="#6a4a2f"/>
      <ellipse cx="0" cy="0" rx="14" ry="6.4" fill="url(#tm-pit)"/>
    </g>
  </g>

  <!-- gold mole (3 pts), popped out with paws on the rim -->
  <g transform="translate(130,62)">
    <g clip-path="none">
      <circle cx="-6.6" cy="-13" r="3.1" fill="#c98908"/><circle cx="-6.6" cy="-12.6" r="1.8" fill="#c98a86"/>
      <circle cx="6.6" cy="-13" r="3.1" fill="#c98908"/><circle cx="6.6" cy="-12.6" r="1.8" fill="#c98a86"/>
      <ellipse cx="0" cy="-8" rx="9.2" ry="10.4" fill="url(#tm-gold)"/>
      <path d="M-8.8 -10 a9.2 10.4 0 0 1 7 -8.2" stroke="rgba(255,255,255,0.6)" stroke-width="1.4" fill="none"/>
      <ellipse cx="0" cy="-4.6" rx="5.2" ry="3.9" fill="#d3aa7c"/>
      <ellipse cx="0" cy="-6.4" rx="1.6" ry="1.3" fill="#c98908"/>
      <g stroke="rgba(60,40,24,0.5)" stroke-width="0.6">
        <path d="M-1.6 -5 l-6 -1.4 M-1.6 -3.8 l-6 0.6 M1.6 -5 l6 -1.4 M1.6 -3.8 l6 0.6"/>
      </g>
      <ellipse cx="-3.2" cy="-12" rx="1.9" ry="2.6" fill="rgba(255,255,255,0.65)"/>
    </g>
    <ellipse cx="-7" cy="-0.8" rx="3" ry="2" fill="#c98908"/>
    <ellipse cx="7" cy="-0.8" rx="3" ry="2" fill="#c98908"/>
  </g>

  <!-- brown mole (1 pt), half-emerged with a dust puff -->
  <g transform="translate(70,62)">
    <g fill="rgba(160,126,84,0.5)">
      <ellipse cx="-13" cy="-1" rx="5" ry="3"/><ellipse cx="13" cy="-1.6" rx="4.2" ry="2.6"/>
    </g>
    <circle cx="-5.6" cy="-8.6" r="2.7" fill="#4a2d16"/><circle cx="-5.6" cy="-8.3" r="1.5" fill="#c98a86"/>
    <circle cx="5.6" cy="-8.6" r="2.7" fill="#4a2d16"/><circle cx="5.6" cy="-8.3" r="1.5" fill="#c98a86"/>
    <ellipse cx="0" cy="-4.4" rx="8" ry="8.6" fill="url(#tm-brown)"/>
    <path d="M-7.6 -6 a8 8.6 0 0 1 6 -7" stroke="rgba(255,222,180,0.45)" stroke-width="1.2" fill="none"/>
    <ellipse cx="0" cy="-1.8" rx="4.4" ry="3.2" fill="#d3aa7c"/>
    <ellipse cx="0" cy="-3.4" rx="1.4" ry="1.1" fill="#4a2d16"/>
  </g>

  <!-- bomb mole -->
  <g transform="translate(40,98)">
    <circle cx="0" cy="-9" r="10.4" fill="url(#tm-bombg)"/>
    <ellipse cx="-3.8" cy="-13" rx="2.2" ry="1.4" fill="rgba(255,255,255,0.7)"/>
    <ellipse cx="0" cy="-8" rx="9.6" ry="3.2" fill="none" stroke="rgba(0,0,0,0.35)" stroke-width="1.3"/>
    <rect x="-2.2" y="-22" width="4.4" height="3.4" rx="1" fill="#8a6338"/>
    <path d="M0 -21.5 q9 -3 6 -8" stroke="#b98a4a" stroke-width="1.6" fill="none" stroke-linecap="round"/>
    <circle cx="6" cy="-29.5" r="5" fill="rgba(255,216,90,0.35)"/>
    <circle cx="6" cy="-29.5" r="2.2" fill="#fff6d0"/>
  </g>

  <!-- blue drum barrel with staves and metal hoops -->
  <g transform="translate(172,74)">
    <ellipse cx="0" cy="15" rx="12" ry="4.4" fill="rgba(20,40,28,0.3)"/>
    <path d="M-10 -9 h20 v20 a6 6 0 0 1 -6 6 h-8 a6 6 0 0 1 -6 -6 z" fill="#3f8fe0"/>
    <path d="M-10 -9 h6 v26 h-2 a6 6 0 0 1 -4 -6 z" fill="#1d4d8c"/>
    <path d="M-1 -9 h4 v26 h-4 z" fill="#7cbcf5"/>
    <g stroke="rgba(10,30,60,0.22)" stroke-width="0.7"><path d="M-6 -9 v26 M6 -9 v26"/></g>
    <rect x="-10" y="-4" width="20" height="3.4" fill="#cfe3ff"/>
    <rect x="-10" y="7" width="20" height="3.4" fill="#cfe3ff"/>
    <ellipse cx="0" cy="-9" rx="10" ry="4" fill="#cfe3ff"/>
    <ellipse cx="0" cy="-9" rx="7.6" ry="2.9" fill="#7cbcf5"/>
    <ellipse cx="-2.4" cy="-10" rx="3.4" ry="1.2" fill="rgba(255,255,255,0.55)"/>
  </g>

  <!-- rival mascot, mid-field -->
  <g transform="translate(158,110)">
    <ellipse cx="0" cy="0" rx="8" ry="3.2" fill="rgba(20,40,28,0.3)"/>
    <path d="M-2 -10 l-3.4 10 M2 -10 l3.4 10" stroke="#14406e" stroke-width="3.2" stroke-linecap="round"/>
    <ellipse cx="-5.4" cy="0" rx="2.2" ry="1.2" fill="#3f2d1e"/>
    <ellipse cx="5.4" cy="0" rx="2.2" ry="1.2" fill="#3f2d1e"/>
    <path d="M-5 -10 q-1.4 -6 -0.6 -10 q5.6 -2.4 11.2 0 q0.8 4 -0.6 10 z" fill="#4aa3ff"/>
    <path d="M4 -19 l7.5 -8" stroke="#8a5a2c" stroke-width="2.4" stroke-linecap="round"/>
    <rect x="8" y="-33" width="12" height="7.6" rx="3" fill="url(#tm-mallet)" transform="rotate(-24 14 -29)"/>
    <circle cx="0" cy="-25" r="5" fill="url(#tm-head)"/>
    <path d="M-5 -26 a5 5 0 0 1 10 -0.6 z" fill="#3f2d1e"/>
  </g>

  <!-- player mascot, front and centre, mallet swinging down -->
  <g transform="translate(96,128)">
    <ellipse cx="0" cy="0" rx="14" ry="5.4" fill="rgba(20,40,28,0.3)"/>
    <ellipse cx="0" cy="0" rx="24" ry="9" fill="none" stroke="rgba(255,240,150,0.5)" stroke-width="1.6" stroke-dasharray="5 4"/>
    <path d="M-3 -16 l-5.4 16 M3 -16 l5.4 16" stroke="#8f3d10" stroke-width="4.6" stroke-linecap="round"/>
    <ellipse cx="-8.4" cy="0" rx="3.2" ry="1.7" fill="#3f2d1e"/>
    <ellipse cx="8.4" cy="0" rx="3.2" ry="1.7" fill="#3f2d1e"/>
    <path d="M-8 -8 q-2 -10 -1 -17 q9 -4 18 0 q1 7 -1 17 z" fill="url(#tm-shirt)"/>
    <rect x="-8" y="-9.6" width="16" height="2.2" fill="rgba(0,0,0,0.18)"/>
    <path d="M-6.6 -30 a8 8 0 0 0 -1.4 5" stroke="rgba(255,255,255,0.3)" stroke-width="1" fill="none"/>
    <!-- back arm -->
    <path d="M-7 -23 l-6 7" stroke="#b4541c" stroke-width="3.6" stroke-linecap="round"/>
    <!-- mallet arm + mallet mid-swing -->
    <path d="M7 -23 l6 3" stroke="#ffb27a" stroke-width="3.8" stroke-linecap="round"/>
    <path d="M13 -20 l16 -9" stroke="#8a5a2c" stroke-width="3.4" stroke-linecap="round"/>
    <rect x="26" y="-41" width="18" height="12" rx="4.5" fill="url(#tm-mallet)" stroke="#8f2f1f" stroke-width="1" transform="rotate(-30 35 -35)"/>
    <rect x="33" y="-40" width="3" height="11" fill="#f7d9a0" transform="rotate(-30 35 -35)"/>
    <path d="M9 -34 a24 24 0 0 1 19 4" stroke="rgba(255,255,255,0.5)" stroke-width="1.6" fill="none"/>
    <circle cx="0" cy="-38" r="7" fill="url(#tm-head)"/>
    <path d="M-7 -39 a7 7 0 0 1 14 -0.8 z" fill="#3f2d1e"/>
    <ellipse cx="0" cy="-31.4" rx="4.4" ry="1.4" fill="rgba(60,40,24,0.22)"/>
  </g>

  <rect width="200" height="140" fill="url(#tm-vig)"/>

  <!-- HUD chips -->
  <rect x="6" y="6" width="38" height="14" rx="4.5" fill="rgba(9,26,18,0.72)" stroke="rgba(255,240,150,0.75)" stroke-width="0.8"/>
  <circle cx="14" cy="13" r="3.4" fill="#ff8a3d"/>
  <text x="30" y="16" font-family="'Segoe UI', sans-serif" font-size="7.5" font-weight="800" fill="#f4faf6" text-anchor="middle">TÚ 12</text>
  <rect x="86" y="6" width="30" height="14" rx="4.5" fill="rgba(9,26,18,0.72)"/>
  <text x="101" y="16" font-family="'Segoe UI', sans-serif" font-size="7.5" font-weight="800" fill="#f4faf6" text-anchor="middle">⏱ 30</text>
</svg>
