<svg width="640" height="360" viewBox="0 0 640 360" fill="none" xmlns="http://www.w3.org/2000/svg">
  <defs>
    <linearGradient id="sky" x1="0" y1="0" x2="0" y2="1">
      <stop offset="0%" stop-color="#7EC9FF"/>
      <stop offset="100%" stop-color="#B9E7FF"/>
    </linearGradient>
    <linearGradient id="ground" x1="0" y1="0" x2="1" y2="1">
      <stop offset="0%" stop-color="#5CBF56"/>
      <stop offset="100%" stop-color="#3F9B3E"/>
    </linearGradient>
    <linearGradient id="water" x1="0" y1="0" x2="1" y2="1">
      <stop offset="0%" stop-color="#4EC7FF"/>
      <stop offset="100%" stop-color="#2D8BD8"/>
    </linearGradient>
  </defs>
  <rect width="640" height="360" rx="28" fill="#111827"/>
  <rect x="18" y="18" width="604" height="324" rx="20" fill="url(#sky)"/>
  <rect x="18" y="118" width="604" height="224" rx="0" fill="url(#ground)"/>

  <rect x="70" y="168" width="190" height="106" rx="8" fill="#C88B46"/>
  <rect x="82" y="182" width="166" height="78" rx="4" fill="#E1B77D"/>
  <path d="M82 182H248L236 194H94L82 182Z" fill="#B97437"/>

  <rect x="314" y="168" width="242" height="124" rx="10" fill="#8C5E2D"/>
  <rect x="326" y="180" width="218" height="100" rx="6" fill="#D2A571"/>
  <g fill="#7C5126">
    <rect x="338" y="194" width="194" height="3"/>
    <rect x="338" y="212" width="194" height="3"/>
    <rect x="338" y="230" width="194" height="3"/>
    <rect x="338" y="248" width="194" height="3"/>
  </g>
  <g fill="#4B8E32">
    <rect x="344" y="188" width="12" height="22"/>
    <rect x="370" y="188" width="12" height="22"/>
    <rect x="396" y="188" width="12" height="22"/>
    <rect x="422" y="188" width="12" height="22"/>
    <rect x="448" y="188" width="12" height="22"/>
    <rect x="474" y="188" width="12" height="22"/>
    <rect x="500" y="188" width="12" height="22"/>
  </g>

  <rect x="86" y="72" width="160" height="108" rx="8" fill="#9D6031"/>
  <polygon points="76,110 166,56 256,110" fill="#B9442E"/>
  <polygon points="90,110 166,66 242,110" fill="#D76045"/>
  <rect x="126" y="114" width="36" height="36" rx="4" fill="#5FA8E8"/>
  <rect x="184" y="124" width="42" height="56" rx="4" fill="#6E4120"/>
  <rect x="194" y="136" width="22" height="44" rx="2" fill="#8C5B32"/>

  <ellipse cx="474" cy="120" rx="92" ry="30" fill="#8ED9FF" opacity="0.75"/>
  <ellipse cx="474" cy="120" rx="76" ry="22" fill="url(#water)"/>
  <ellipse cx="474" cy="120" rx="44" ry="12" fill="#9EE6FF" opacity="0.42"/>

  <rect x="58" y="290" width="524" height="26" rx="8" fill="#D9A15B"/>
  <rect x="58" y="302" width="524" height="14" rx="7" fill="#B87E3D"/>

  <g fill="#2D7C2F">
    <circle cx="62" cy="140" r="28"/>
    <circle cx="582" cy="154" r="34"/>
    <circle cx="554" cy="98" r="22"/>
    <circle cx="298" cy="132" r="24"/>
  </g>
  <g fill="#4EB24A">
    <circle cx="62" cy="140" r="18"/>
    <circle cx="582" cy="154" r="22"/>
    <circle cx="554" cy="98" r="14"/>
    <circle cx="298" cy="132" r="14"/>
  </g>

  <rect x="34" y="26" width="250" height="34" rx="9" fill="#1C3B1E" opacity="0.82"/>
  <text x="46" y="49" fill="#F5F7D3" font-family="'Press Start 2P', monospace" font-size="14" letter-spacing="1">VALLE TRANQUILO</text>
</svg>
