<svg xmlns="http://www.w3.org/2000/svg" viewBox="0 0 640 360" role="img" aria-label="Bomber Grid">
  <defs>
    <linearGradient id="bg" x1="0" y1="0" x2="1" y2="1">
      <stop offset="0%" stop-color="#3a1a0a"/>
      <stop offset="45%" stop-color="#0f172a"/>
      <stop offset="100%" stop-color="#3b0a1e"/>
    </linearGradient>
  </defs>
  <rect width="640" height="360" fill="url(#bg)"/>
  <rect x="30" y="24" width="580" height="312" rx="24" fill="rgba(2,6,23,0.72)" stroke="rgba(251,146,60,0.34)"/>
  <rect x="92" y="68" width="456" height="214" rx="14" fill="rgba(15,23,42,0.9)"/>
  <g transform="translate(110 84)">
    <rect x="0" y="0" width="30" height="30" fill="#64748b"/><rect x="32" y="0" width="30" height="30" fill="#7c2d12"/><rect x="64" y="0" width="30" height="30" fill="#64748b"/><rect x="96" y="0" width="30" height="30" fill="#7c2d12"/><rect x="128" y="0" width="30" height="30" fill="#64748b"/><rect x="160" y="0" width="30" height="30" fill="#7c2d12"/><rect x="192" y="0" width="30" height="30" fill="#64748b"/><rect x="224" y="0" width="30" height="30" fill="#7c2d12"/><rect x="256" y="0" width="30" height="30" fill="#64748b"/><rect x="288" y="0" width="30" height="30" fill="#7c2d12"/>
    <rect x="0" y="32" width="30" height="30" fill="#0f172a"/><rect x="32" y="32" width="30" height="30" fill="#64748b"/><rect x="64" y="32" width="30" height="30" fill="#0f172a"/><rect x="96" y="32" width="30" height="30" fill="#64748b"/><rect x="128" y="32" width="30" height="30" fill="#0f172a"/><rect x="160" y="32" width="30" height="30" fill="#64748b"/><rect x="192" y="32" width="30" height="30" fill="#0f172a"/><rect x="224" y="32" width="30" height="30" fill="#64748b"/><rect x="256" y="32" width="30" height="30" fill="#0f172a"/><rect x="288" y="32" width="30" height="30" fill="#64748b"/>
  </g>
  <circle cx="270" cy="178" r="11" fill="#e2e8f0"/>
  <path d="M270 166l8-10" stroke="#fb7185" stroke-width="3" stroke-linecap="round"/>
  <circle cx="352" cy="178" r="16" fill="rgba(251,146,60,0.35)"/>
  <rect x="220" y="216" width="20" height="20" rx="5" fill="#4ade80"/>
  <rect x="396" y="142" width="20" height="20" rx="5" fill="#fb7185"/>
  <text x="76" y="302" fill="#f8fafc" font-size="34" font-family="'Bricolage Grotesque','Segoe UI',sans-serif" font-weight="700">Bomber Grid</text>
  <text x="76" y="326" fill="#fdba74" font-size="16" font-family="'JetBrains Mono','Consolas',monospace">Textured maze, glowing blasts, polished readability</text>
</svg>
