<svg xmlns="http://www.w3.org/2000/svg" viewBox="0 0 640 360" role="img" aria-label="Pulse Garden">
  <defs><linearGradient id="pg-bg" x1="0" y1="0" x2="1" y2="1"><stop stop-color="#092f2a"/><stop offset="1" stop-color="#172554"/></linearGradient></defs>
  <rect width="640" height="360" rx="28" fill="url(#pg-bg)"/>
  <g opacity=".7" stroke="#34d399" stroke-width="2">
    <path d="M80 56h480M80 104h480M80 152h480M80 200h480M80 248h480"/>
    <path d="M80 56v192M128 56v192M176 56v192M224 56v192M272 56v192M320 56v192M368 56v192M416 56v192M464 56v192M512 56v192M560 56v192"/>
  </g>
  <g fill="#a7f3d0"><path d="M104 80 122 98 104 116 86 98Z"/><path d="M488 176 506 194 488 212 470 194Z"/></g>
  <g transform="translate(296 128)">
    <circle cx="24" cy="24" r="18" fill="#fb7185"/>
    <circle cx="24" cy="24" r="34" fill="none" stroke="#fb7185" stroke-width="5" opacity=".65"/>
    <path d="M24-22v20M24 50v20M-22 24h20M50 24h20" stroke="#fda4af" stroke-width="8" stroke-linecap="round"/>
  </g>
  <path d="M192 214 208 230 192 246 176 230Z" fill="#fbbf24"/>
  <text x="42" y="330" fill="#ecfdf5" font-size="36" font-family="Segoe UI,sans-serif" font-weight="800">PULSE GARDEN</text>
</svg>
