<svg width="640" height="360" viewBox="0 0 640 360" xmlns="http://www.w3.org/2000/svg" role="img" aria-label="Neon Rush">
  <defs>
    <linearGradient id="bg" x1="0" y1="0" x2="1" y2="1">
      <stop offset="0%" stop-color="#050814"/>
      <stop offset="52%" stop-color="#0c1230"/>
      <stop offset="100%" stop-color="#1a0e36"/>
    </linearGradient>
    <linearGradient id="rail" x1="0" y1="0" x2="1" y2="0">
      <stop offset="0%" stop-color="#00d6ff"/>
      <stop offset="100%" stop-color="#ff2aa1"/>
    </linearGradient>
    <filter id="glow" x="-20%" y="-20%" width="140%" height="140%">
      <feGaussianBlur stdDeviation="3.5" result="b"/>
      <feMerge>
        <feMergeNode in="b"/>
        <feMergeNode in="SourceGraphic"/>
      </feMerge>
    </filter>
  </defs>

  <rect width="640" height="360" fill="url(#bg)"/>
  <rect x="0" y="262" width="640" height="98" fill="#090d20"/>
  <g stroke="#253b72" stroke-width="1" opacity="0.5">
    <path d="M0 284h640"/>
    <path d="M0 304h640"/>
    <path d="M0 324h640"/>
    <path d="M0 344h640"/>
  </g>
  <rect x="0" y="258" width="640" height="4" fill="url(#rail)" filter="url(#glow)"/>

  <g fill="#e7f9ff" filter="url(#glow)">
    <path d="M160 262l20-38 20 38z"/>
    <path d="M262 262l18-34 18 34z"/>
    <path d="M392 262l22-40 22 40z"/>
    <path d="M470 262l18-34 18 34z"/>
  </g>

  <rect x="545" y="130" width="34" height="132" fill="none" stroke="#00f0ff" stroke-width="4" filter="url(#glow)"/>
  <rect x="545" y="130" width="34" height="132" fill="#00d6ff" opacity="0.1"/>

  <g transform="translate(124 222)" filter="url(#glow)">
    <path d="M-46 0l6-6h8l6 6v8l-6 6h-8l-6-6z" fill="#00d6ff" opacity="0.36"/>
    <path d="M-30 -2l5-5h7l5 5v7l-5 5h-7l-5-5z" fill="#ff2aa1" opacity="0.28"/>
    <path d="M-17 -9l8-8h18l8 8v18l-8 8H-9l-8-8z" fill="#00e4ff" stroke="#ffffff" stroke-width="2"/>
    <path d="M-9 -4l4-4h10l4 4v10l-4 4H-5l-4-4z" fill="#0a1326" opacity="0.74"/>
    <path d="M-6 -1l3-3h6l3 3v6l-3 3h-6l-3-3z" fill="none" stroke="#79f4ff" stroke-width="1.3" opacity="0.74"/>
  </g>

  <text x="36" y="70" fill="#9ce7ff" font-family="Orbitron,Arial,sans-serif" font-size="19" letter-spacing="3">ARCADE</text>
  <text x="36" y="112" fill="#ffffff" font-family="Orbitron,Arial,sans-serif" font-size="44" font-weight="700" letter-spacing="4">NEON RUSH</text>
  <text x="36" y="146" fill="#f3bbff" font-family="Rajdhani,Arial,sans-serif" font-size="17" letter-spacing="2">PRECISION RUNNER - LOW-LATENCY OCTA RIDER</text>
</svg>

