<svg width="1280" height="720" viewBox="0 0 1280 720" fill="none" xmlns="http://www.w3.org/2000/svg">
  <defs>
    <linearGradient id="bg" x1="140" y1="60" x2="1160" y2="680" gradientUnits="userSpaceOnUse">
      <stop offset="0" stop-color="#FFF7ED"/>
      <stop offset="0.5" stop-color="#FED7AA"/>
      <stop offset="1" stop-color="#FFEDD5"/>
    </linearGradient>
    <linearGradient id="counter" x1="640" y1="250" x2="640" y2="660" gradientUnits="userSpaceOnUse">
      <stop offset="0" stop-color="#B45309"/>
      <stop offset="1" stop-color="#78350F"/>
    </linearGradient>
    <linearGradient id="stove" x1="0" y1="0" x2="1" y2="1">
      <stop offset="0" stop-color="#E2E8F0"/>
      <stop offset="1" stop-color="#94A3B8"/>
    </linearGradient>
    <radialGradient id="glow" cx="0" cy="0" r="1" gradientUnits="userSpaceOnUse" gradientTransform="translate(940 144) rotate(90) scale(162 190)">
      <stop stop-color="#FACC15" stop-opacity="0.52"/>
      <stop offset="1" stop-color="#FACC15" stop-opacity="0"/>
    </radialGradient>
  </defs>

  <rect width="1280" height="720" rx="52" fill="url(#bg)"/>
  <rect width="1280" height="720" rx="52" fill="url(#glow)"/>

  <rect x="96" y="258" width="1088" height="360" rx="28" fill="url(#counter)"/>
  <rect x="128" y="286" width="1024" height="302" rx="22" fill="#FDE68A" fill-opacity="0.2"/>

  <rect x="154" y="180" width="228" height="198" rx="22" fill="#DBEAFE" stroke="#1D4ED8" stroke-width="8"/>
  <rect x="188" y="212" width="160" height="120" rx="16" fill="#EFF6FF"/>
  <rect x="196" y="336" width="144" height="18" rx="9" fill="#1D4ED8" fill-opacity="0.22"/>

  <rect x="430" y="178" width="250" height="202" rx="24" fill="#F5E3BF" stroke="#7C2D12" stroke-width="8"/>
  <rect x="470" y="232" width="170" height="90" rx="14" fill="#B45309" fill-opacity="0.24"/>
  <rect x="532" y="194" width="22" height="170" rx="11" fill="#7C2D12"/>

  <rect x="732" y="178" width="186" height="202" rx="24" fill="url(#stove)" stroke="#475569" stroke-width="8"/>
  <circle cx="789" cy="248" r="34" fill="#1E293B"/>
  <circle cx="860" cy="248" r="34" fill="#1E293B"/>
  <circle cx="789" cy="320" r="34" fill="#DC2626" fill-opacity="0.84"/>
  <circle cx="860" cy="320" r="34" fill="#F97316" fill-opacity="0.78"/>

  <rect x="962" y="186" width="162" height="248" rx="24" fill="#1F2937" stroke="#111827" stroke-width="8"/>
  <rect x="989" y="232" width="108" height="144" rx="16" fill="#F59E0B" fill-opacity="0.34" stroke="#F97316" stroke-width="4"/>
  <rect x="999" y="206" width="88" height="14" rx="7" fill="#E5E7EB"/>

  <ellipse cx="468" cy="504" rx="96" ry="42" fill="#F8FAFC" stroke="#CBD5E1" stroke-width="8"/>
  <ellipse cx="468" cy="504" rx="68" ry="24" fill="#E2E8F0"/>
  <circle cx="438" cy="490" r="17" fill="#EF4444"/>
  <circle cx="470" cy="484" r="17" fill="#A78BFA"/>
  <circle cx="500" cy="492" r="17" fill="#FACC15"/>

  <ellipse cx="710" cy="506" rx="88" ry="40" fill="#7C2D12"/>
  <ellipse cx="710" cy="492" rx="78" ry="24" fill="#B45309"/>
  <ellipse cx="710" cy="522" rx="78" ry="16" fill="#F59E0B"/>

  <circle cx="946" cy="516" r="58" fill="#F97316"/>
  <rect x="924" y="468" width="44" height="92" rx="22" fill="#F8FAFC"/>
  <circle cx="946" cy="444" r="28" fill="#FDE68A"/>
  <rect x="918" y="552" width="56" height="18" rx="9" fill="#7C2D12"/>

  <rect x="102" y="84" width="404" height="72" rx="18" fill="#0F172A" fill-opacity="0.76"/>
  <text x="132" y="129" fill="#F8FAFC" font-family="Bricolage Grotesque, Arial, sans-serif" font-size="44" font-weight="700">Kitchen Rush 2D</text>

  <rect x="836" y="84" width="334" height="72" rx="18" fill="#0F766E" fill-opacity="0.85"/>
  <text x="862" y="129" fill="#ECFDF5" font-family="Outfit, Arial, sans-serif" font-size="32" font-weight="700">Cortar · Cocinar · Servir</text>
</svg>
