<svg xmlns="http://www.w3.org/2000/svg" viewBox="0 0 640 360" role="img" aria-label="Space Invaders Core">
  <defs>
    <linearGradient id="bg" x1="0" y1="0" x2="1" y2="1">
      <stop offset="0%" stop-color="#11240a"/>
      <stop offset="45%" stop-color="#0f172a"/>
      <stop offset="100%" stop-color="#0f3b2e"/>
    </linearGradient>
  </defs>
  <rect width="640" height="360" fill="url(#bg)"/>
  <g fill="#e2e8f0" opacity="0.4">
    <circle cx="52" cy="38" r="1.8"/><circle cx="118" cy="78" r="1.2"/><circle cx="202" cy="46" r="1.6"/>
    <circle cx="278" cy="66" r="1.4"/><circle cx="358" cy="34" r="1.7"/><circle cx="422" cy="72" r="1.2"/>
    <circle cx="508" cy="48" r="1.5"/><circle cx="586" cy="64" r="1.3"/>
  </g>
  <rect x="30" y="24" width="580" height="312" rx="24" fill="rgba(2,6,23,0.72)" stroke="rgba(163,230,53,0.34)"/>
  <g transform="translate(120 86)">
    <g fill="#bef264">
      <rect x="0" y="0" width="36" height="24" rx="6"/><rect x="54" y="0" width="36" height="24" rx="6"/><rect x="108" y="0" width="36" height="24" rx="6"/><rect x="162" y="0" width="36" height="24" rx="6"/><rect x="216" y="0" width="36" height="24" rx="6"/><rect x="270" y="0" width="36" height="24" rx="6"/>
      <rect x="26" y="44" width="36" height="24" rx="6"/><rect x="80" y="44" width="36" height="24" rx="6"/><rect x="134" y="44" width="36" height="24" rx="6"/><rect x="188" y="44" width="36" height="24" rx="6"/><rect x="242" y="44" width="36" height="24" rx="6"/>
    </g>
    <g fill="#1f2937">
      <rect x="12" y="8" width="5" height="4"/><rect x="22" y="8" width="5" height="4"/>
      <rect x="66" y="8" width="5" height="4"/><rect x="76" y="8" width="5" height="4"/>
      <rect x="120" y="8" width="5" height="4"/><rect x="130" y="8" width="5" height="4"/>
    </g>
  </g>
  <path d="M320 244l-24 36h48z" fill="#38bdf8"/>
  <path d="M320 240v-72" stroke="#f8fafc" stroke-width="4" stroke-linecap="round"/>
  <path d="M392 136v132" stroke="#fb7185" stroke-width="3" stroke-linecap="round"/>
  <text x="74" y="302" fill="#f8fafc" font-size="34" font-family="'Bricolage Grotesque','Segoe UI',sans-serif" font-weight="700">Space Invaders Core</text>
  <text x="74" y="326" fill="#d9f99d" font-size="16" font-family="'JetBrains Mono','Consolas',monospace">Arcade shooter with modern neon readability</text>
</svg>
