<svg width="800" height="600" viewBox="0 0 800 600" fill="none" xmlns="http://www.w3.org/2000/svg">
  <defs>
    <linearGradient id="bg" x1="108" y1="48" x2="714" y2="542" gradientUnits="userSpaceOnUse">
      <stop stop-color="#FAF0D5"/>
      <stop offset="0.5" stop-color="#E4D7B1"/>
      <stop offset="1" stop-color="#B9C8BE"/>
    </linearGradient>
    <linearGradient id="card" x1="0" y1="0" x2="1" y2="1">
      <stop stop-color="#274D57"/>
      <stop offset="1" stop-color="#14262A"/>
    </linearGradient>
    <linearGradient id="pack" x1="0" y1="0" x2="1" y2="1">
      <stop stop-color="#C87A44"/>
      <stop offset="1" stop-color="#6D3B2D"/>
    </linearGradient>
    <filter id="shadow" x="116" y="98" width="582" height="364" filterUnits="userSpaceOnUse" color-interpolation-filters="sRGB">
      <feFlood flood-opacity="0" result="BackgroundImageFix"/>
      <feColorMatrix in="SourceAlpha" type="matrix" values="0 0 0 0 0 0 0 0 0 0 0 0 0 0 0 0 0 0 127 0" result="hardAlpha"/>
      <feOffset dy="26"/>
      <feGaussianBlur stdDeviation="26"/>
      <feColorMatrix type="matrix" values="0 0 0 0 0.190833 0 0 0 0 0.139715 0 0 0 0 0.0726667 0 0 0 0.23 0"/>
      <feBlend mode="normal" in2="BackgroundImageFix" result="effect1_dropShadow_0_1"/>
      <feBlend mode="normal" in="SourceGraphic" in2="effect1_dropShadow_0_1" result="shape"/>
    </filter>
  </defs>
  <rect width="800" height="600" rx="40" fill="url(#bg)"/>
  <circle cx="127" cy="100" r="74" fill="#D7644A" fill-opacity="0.18"/>
  <circle cx="696" cy="504" r="86" fill="#2C8191" fill-opacity="0.16"/>
  <g filter="url(#shadow)">
    <rect x="168" y="150" width="186" height="236" rx="24" transform="rotate(-8 168 150)" fill="url(#card)"/>
    <rect x="226" y="132" width="186" height="236" rx="24" transform="rotate(-2 226 132)" fill="#FFF6E3"/>
    <rect x="378" y="154" width="186" height="236" rx="24" transform="rotate(6 378 154)" fill="url(#pack)"/>
  </g>
  <rect x="245" y="163" width="148" height="30" rx="15" fill="#E4D18E"/>
  <rect x="245" y="210" width="148" height="14" rx="7" fill="#D4C6A4"/>
  <rect x="245" y="236" width="120" height="14" rx="7" fill="#D4C6A4"/>
  <rect x="245" y="262" width="136" height="14" rx="7" fill="#D4C6A4"/>
  <circle cx="319" cy="319" r="34" fill="#2E7787"/>
  <path d="M314.5 300L326.1 314.8L346 300L333.1 333.8H305.9L293 300L314.5 300Z" fill="#FFF6E3"/>
  <path d="M433 188H510C519.389 188 527 195.611 527 205V222C527 231.389 519.389 239 510 239H433V188Z" fill="#F3E5BB" fill-opacity="0.32"/>
  <path d="M444 276C444 245.072 469.072 220 500 220H532V322H500C469.072 322 444 296.928 444 266V276Z" fill="#F3E5BB" fill-opacity="0.18"/>
  <circle cx="515" cy="329" r="22" fill="#E6D38E"/>
  <path d="M502 329L511.5 338.5L529 319" stroke="#4B2B23" stroke-width="8" stroke-linecap="round" stroke-linejoin="round"/>
  <text x="90" y="486" fill="#4C342A" font-family="Georgia, serif" font-size="54" font-weight="700">Wikipedia Gacha</text>
  <text x="92" y="530" fill="#6D5A46" font-family="Trebuchet MS, sans-serif" font-size="24">Anonymous browser archive • Pack reveal • Q-Score rarity</text>
</svg>
