<svg width="640" height="360" viewBox="0 0 640 360" fill="none" xmlns="http://www.w3.org/2000/svg">
  <defs>
    <linearGradient id="bg" x1="0" y1="0" x2="640" y2="360" gradientUnits="userSpaceOnUse">
      <stop offset="0" stop-color="#10213A"/>
      <stop offset="1" stop-color="#2D1E3D"/>
    </linearGradient>
    <linearGradient id="card" x1="0" y1="0" x2="1" y2="1">
      <stop offset="0" stop-color="#E2E8F0" stop-opacity="0.95"/>
      <stop offset="1" stop-color="#CBD5E1" stop-opacity="0.9"/>
    </linearGradient>
  </defs>

  <rect width="640" height="360" rx="28" fill="url(#bg)"/>
  <circle cx="534" cy="78" r="70" fill="#22D3EE" fill-opacity="0.2"/>
  <circle cx="130" cy="290" r="86" fill="#F97316" fill-opacity="0.18"/>

  <rect x="92" y="68" width="456" height="228" rx="18" fill="#0F172A" fill-opacity="0.72" stroke="#94A3B8" stroke-opacity="0.36"/>

  <g opacity="0.9">
    <rect x="126" y="102" width="88" height="56" rx="10" fill="url(#card)"/>
    <rect x="126" y="170" width="88" height="56" rx="10" fill="url(#card)"/>
    <rect x="126" y="238" width="88" height="30" rx="8" fill="#22C55E" fill-opacity="0.7"/>

    <rect x="230" y="102" width="180" height="166" rx="12" fill="#1E293B" stroke="#334155"/>
    <rect x="422" y="102" width="92" height="76" rx="10" fill="url(#card)"/>
    <rect x="422" y="192" width="92" height="76" rx="10" fill="url(#card)"/>

    <circle cx="306" cy="136" r="8" fill="#F59E0B"/>
    <circle cx="270" cy="186" r="8" fill="#38BDF8"/>
    <circle cx="342" cy="186" r="8" fill="#38BDF8"/>
    <circle cx="306" cy="236" r="8" fill="#F59E0B"/>

    <line x1="270" y1="186" x2="306" y2="136" stroke="#94A3B8" stroke-width="3"/>
    <line x1="342" y1="186" x2="306" y2="136" stroke="#94A3B8" stroke-width="3"/>
    <line x1="270" y1="186" x2="306" y2="236" stroke="#94A3B8" stroke-width="3"/>
    <line x1="342" y1="186" x2="306" y2="236" stroke="#94A3B8" stroke-width="3"/>
  </g>

  <text x="96" y="44" fill="#F8FAFC" font-size="30" font-family="Arial, sans-serif" font-weight="700">MANSION TRIPLE ENIGMA</text>
  <text x="96" y="334" fill="#BFDBFE" font-size="18" font-family="Arial, sans-serif">Deduccion + Farol IA + Acusacion Final</text>
</svg>
