<svg width="1425" height="450" viewBox="0 0 1425 450" fill="none" xmlns="http://www.w3.org/2000/svg" role="img" aria-labelledby="gameLockLogoTitle">
  <title id="gameLockLogoTitle">GameLock</title>
  <defs>
    <linearGradient id="markGradient" x1="76" y1="352" x2="370" y2="72" gradientUnits="userSpaceOnUse">
      <stop stop-color="#00E5C3"/>
      <stop offset="0.48" stop-color="#2563FF"/>
      <stop offset="1" stop-color="#7B3FF2"/>
    </linearGradient>
    <linearGradient id="markSheen" x1="96" y1="148" x2="376" y2="248" gradientUnits="userSpaceOnUse">
      <stop stop-color="#6F89FF" stop-opacity="0.55"/>
      <stop offset="1" stop-color="#FFFFFF" stop-opacity="0.08"/>
    </linearGradient>
    <linearGradient id="lockGradient" x1="945" y1="114" x2="1318" y2="246" gradientUnits="userSpaceOnUse">
      <stop stop-color="#2563FF"/>
      <stop offset="1" stop-color="#7B3FF2"/>
    </linearGradient>
    <filter id="softShadow" x="0" y="0" width="456" height="420" filterUnits="userSpaceOnUse" color-interpolation-filters="sRGB">
      <feDropShadow dx="0" dy="18" stdDeviation="18" flood-color="#2563FF" flood-opacity="0.16"/>
    </filter>
  </defs>

  <g filter="url(#softShadow)">
    <path d="M120 138V92C120 48.9 155 14 198 14C241 14 276 48.9 276 92V138H240V92C240 68.8 221.2 50 198 50C174.8 50 156 68.8 156 92V138H120Z" fill="url(#markGradient)"/>
    <path d="M100 122H294C343.7 122 384 162.3 384 212V252C384 301.7 343.7 342 294 342H112C62.3 342 22 301.7 22 252V193C22 153.8 53.8 122 93 122H100Z" fill="url(#markGradient)"/>
    <path d="M78 122C141 130 205 120 263 120C317 120 358 143 378 184C329 160 285 160 231 180C177 200 117 211 40 198C47 164 65 138 78 122Z" fill="url(#markSheen)"/>
    <path d="M183 182C183 164.3 203.4 154.4 217.3 165.4L280 215.1C291.1 223.9 291.1 240.7 280 249.5L217.3 299.2C203.4 310.2 183 300.3 183 282.6V182Z" fill="white"/>
    <path d="M76 235H127" stroke="white" stroke-width="22" stroke-linecap="round"/>
    <path d="M101.5 209.5V260.5" stroke="white" stroke-width="22" stroke-linecap="round"/>
    <circle cx="324" cy="210" r="14" fill="white"/>
    <circle cx="352" cy="238" r="14" fill="white"/>
    <circle cx="296" cy="238" r="14" fill="white"/>
    <circle cx="324" cy="266" r="14" fill="white"/>
    <path d="M306 90H386" stroke="#C6FF00" stroke-width="12" stroke-linecap="round"/>
    <path d="M304 112H364" stroke="#C6FF00" stroke-width="9" stroke-linecap="round"/>
    <path d="M304 133H345" stroke="#C6FF00" stroke-width="8" stroke-linecap="round"/>
  </g>

  <text x="462" y="274" font-family="Bricolage Grotesque, Outfit, Arial, sans-serif" font-size="172" font-weight="800" letter-spacing="-7" fill="#111827">Game</text>
  <text x="905" y="274" font-family="Bricolage Grotesque, Outfit, Arial, sans-serif" font-size="172" font-weight="800" letter-spacing="-7" fill="url(#lockGradient)">Lock</text>
</svg>
