<svg xmlns="http://www.w3.org/2000/svg" width="160" height="220" viewBox="0 0 160 220" fill="none">
  <defs>
    <linearGradient id="card" x1="12" y1="12" x2="148" y2="208" gradientUnits="userSpaceOnUse">
      <stop stop-color="#E2E8F0"/>
      <stop offset="1" stop-color="#CBD5E1"/>
    </linearGradient>
  </defs>
  <rect x="10" y="10" width="140" height="200" rx="16" fill="url(#card)" stroke="#0F172A" stroke-width="3"/>
  <path d="M98 48C110 48 120 58 120 70C120 74 119 78 116 82L102 68H90V80L104 94C100 97 96 98 92 98C80 98 70 88 70 76C70 72 71 68 74 64L66 56C62 60 58 68 58 76C58 95 73 110 92 110C98 110 103 109 108 106L114 112L96 130L48 178C44 182 44 188 48 192C52 196 58 196 62 192L110 144L128 126L138 136C142 140 148 140 152 136C156 132 156 126 152 122L98 68C99 65 100 62 100 58V48Z" fill="#475569"/>
</svg>