<?xml version="1.0" encoding="UTF-8"?>
<svg xmlns="http://www.w3.org/2000/svg" width="128" height="128" viewBox="0 0 128 128" role="img" aria-label="alba">
  <defs>
    <filter id="paper"><feTurbulence baseFrequency=".045" numOctaves="3" seed="7" result="n"/><feDisplacementMap in="SourceGraphic" in2="n" scale="1.4"/></filter>
    <filter id="glow"><feGaussianBlur stdDeviation="4" result="b"/><feMerge><feMergeNode in="b"/><feMergeNode in="SourceGraphic"/></feMerge></filter>
  </defs>
  
    <rect width="128" height="128" rx="22" fill="#0d1220"/>
    <circle cx="64" cy="64" r="50" fill="#ffe6a1" opacity=".08"/>
    <g stroke="#ffe6a1" stroke-width="5" stroke-linecap="round" filter="url(#glow)"><path d="M81.0 69.9L103.7 77.7"/><path d="M73.3 79.4L89.2 106.0"/><path d="M61.2 81.8L55.2 119.3"/><path d="M50.4 75.8L32.3 91.6"/><path d="M46.0 64.3L15.0 64.9"/><path d="M50.0 52.7L20.5 28.8"/><path d="M60.6 46.3L56.0 22.8"/><path d="M72.7 48.3L87.8 21.1"/><path d="M80.8 57.5L116.3 43.9"/></g>
    <g transform="translate(32 32)" fill="none" stroke="#f4f8ff" stroke-width="3.5" stroke-linecap="round" stroke-linejoin="round"><path d="M11 36c9-18 33-18 42 0-9 18-33 18-42 0z"/><circle cx="32" cy="36" r="7"/></g>
    <path d="M14 106h100" stroke="#ffe6a1" stroke-width="4"/>
  
</svg>