<?xml version="1.0" encoding="UTF-8"?>
<svg xmlns="http://www.w3.org/2000/svg" width="128" height="128" viewBox="0 0 128 128" role="img" aria-label="ancla">
  <defs>
    <filter id="paper"><feTurbulence baseFrequency=".045" numOctaves="3" seed="7" result="n"/><feDisplacementMap in="SourceGraphic" in2="n" scale="1.4"/></filter>
    <filter id="glow"><feGaussianBlur stdDeviation="4" result="b"/><feMerge><feMergeNode in="b"/><feMergeNode in="SourceGraphic"/></feMerge></filter>
  </defs>
  
    <rect width="128" height="128" rx="22" fill="#0d1220"/>
    <circle cx="64" cy="64" r="50" fill="#8d72ee" opacity=".08"/>
    <g stroke="#8d72ee" stroke-width="5" stroke-linecap="round" filter="url(#glow)"><path d="M81.8 66.5L105.6 69.8"/><path d="M76.0 77.4L96.8 100.4"/><path d="M64.6 82.0L66.0 120.0"/><path d="M52.9 78.2L38.1 97.1"/><path d="M46.4 67.7L16.1 74.2"/><path d="M48.1 55.5L14.6 37.7"/><path d="M57.3 47.3L48.3 25.1"/><path d="M69.6 46.9L79.1 17.4"/><path d="M79.3 54.5L111.5 34.3"/></g>
    <g transform="translate(32 32)" fill="none" stroke="#f4f8ff" stroke-width="3.5" stroke-linecap="round" stroke-linejoin="round"><path d="M14 50 32 10l18 40z"/><path d="M20 40h24M25 29h14"/></g>
    <path d="M14 106h100" stroke="#8d72ee" stroke-width="4"/>
  
</svg>